<svg width="117" height="115" viewBox="0 0 117 115" fill="none" xmlns="http://www.w3.org/2000/svg">
<g clip-path="url(#clip0)">
<path d="M2.86328 46.0564L15.3211 42.47M27.779 38.8836L15.3211 42.47M15.3211 42.47V72.1046M30.7991 22.8394C38.9156 29.8234 43.014 38.6949 44.012 41.5262C45.01 44.3576 46.0975 49.3416 46.392 51.1528C47.9208 60.5546 47.7871 72.8596 47.7871 72.8596C47.7871 72.8596 49.8634 40.96 54.2048 31.3334C58.5462 21.7069 65.3414 17.1768 65.3414 17.1768" stroke="#666666" stroke-width="5.66267" stroke-linecap="round"/>
<path d="M2.86289 87.2564C14.3141 87.2564 24.223 78.6809 44.3734 77.2366C64.5237 75.7923 68.7071 107.296 110.218 100.139" stroke="#666666" stroke-width="5.66267" stroke-linecap="round"/>
<circle cx="46.4653" cy="25.6713" r="3.58635" fill="#666666"/>
<path d="M112.153 44.5465L102.527 41.5264V60.7795M112.153 75.6912L102.527 80.0326V60.7795M102.527 60.7795H110.643M68.5508 35.8638V85.884C68.5508 85.884 92.9002 77.2012 92.9002 60.0245C92.9002 38.8839 68.5508 35.8638 68.5508 35.8638Z" stroke="#666666" stroke-width="5.66267" stroke-linecap="round"/>
</g>
<defs>
<clipPath id="clip0">
<rect width="116.791" height="114.966" fill="white"/>
</clipPath>
</defs>
</svg>
