<svg xmlns="http://www.w3.org/2000/svg" viewBox="0 0 187.19 116"><defs><style>.cls-1{font-size:114.33px;font-family:Roboto-Bold, Roboto;font-weight:700;}.cls-1,.cls-3{fill:#fff;}.cls-2{isolation:isolate;}.cls-3{fill-rule:evenodd;}</style></defs><title>Artboard 2</title><g id="Aa"><text class="cls-1" transform="translate(6.88 100.84)">Aa</text></g><g id="Rounded_Rectangle_3" data-name="Rounded Rectangle 3" class="cls-2"><g id="Rounded_Rectangle_3-2" data-name="Rounded Rectangle 3"><path class="cls-3" d="M170.69,0a4.5,4.5,0,0,0-4.5,4.5v107a4.5,4.5,0,1,0,9,0V4.5A4.5,4.5,0,0,0,170.69,0Z"/></g></g><g id="Rounded_Rectangle_4" data-name="Rounded Rectangle 4" class="cls-2"><g id="Rounded_Rectangle_4-2" data-name="Rounded Rectangle 4"><path class="cls-3" d="M183.19,0h-26a4,4,0,1,0,0,8h26a4,4,0,1,0,0-8Z"/></g></g><g id="Rounded_Rectangle_4_copy" data-name="Rounded Rectangle 4 copy" class="cls-2"><g id="Rounded_Rectangle_4_copy-2" data-name="Rounded Rectangle 4 copy"><path class="cls-3" d="M183.19,108h-26a4,4,0,1,0,0,8h26a4,4,0,1,0,0-8Z"/></g></g></svg>