<?xml version="1.0" encoding="utf-8"?>
<!-- Generator: Adobe Illustrator 23.0.6, SVG Export Plug-In . SVG Version: 6.00 Build 0)  -->
<svg version="1.1" xmlns="http://www.w3.org/2000/svg" xmlns:xlink="http://www.w3.org/1999/xlink" x="0px" y="0px"
	 viewBox="0 0 210.34 201.17" style="enable-background:new 0 0 210.34 201.17;" xml:space="preserve">
<style type="text/css">
	.st0{fill:#F99030;}
	.st1{fill:#D64C00;}
	.st2{fill:#FFFFFF;}
	.st3{fill:none;stroke:#F99030;stroke-width:5;stroke-miterlimit:10;}
</style>
<g id="Layer_6">
	<g>
		<path class="st0" d="M40.72,31.54c6.99-3.05,13-7.92,19.17-12.42s12.78-8.75,20.27-10.25c4.29-0.86,8.77-0.77,13.03,0.26
			c0.53,0.13,1.08,0.28,1.49,0.65c0.62,0.56,0.77,1.51,0.58,2.33c-0.19,0.82-0.65,1.54-1.09,2.25c-1.96,3.19-3.59,6.58-4.84,10.11
			c-0.31,0.87-0.67,1.83-1.5,2.24c-0.47,0.23-1.02,0.23-1.54,0.23c-12.21,0.01-24.34,1.67-36.44,3.32c-2.6,0.36-5.2,0.71-7.8,1.07"
			/>
		<g>
			<path class="st0" d="M41.22,33.36c7.21-2.48,13.28-7.3,19.4-11.68c3.06-2.19,6.17-4.31,9.48-6.11c1.66-0.91,3.37-1.59,5.1-2.35
				c1.54-0.67,3.23-1.3,4.91-1.5c3.88-0.47,7.54-0.79,11.41-0.04c0.17,0.03,1.29,0.37,1.36,0.31c0.05-0.04-0.5-0.58-0.4-0.62
				c0.04-0.02-0.22,0.53-0.27,0.63c-0.23,0.44-0.52,0.86-0.79,1.28c-1.02,1.66-1.95,3.37-2.79,5.12c-0.87,1.83-1.59,3.71-2.34,5.59
				c0.06-0.14-0.28,0.23-0.08,0.16c0.66-0.2,0.43-0.21,0.06-0.28c-1.05-0.22-2.39-0.01-3.46,0.01c-4.2,0.06-8.4,0.3-12.58,0.65
				c-9.73,0.82-19.4,2.25-29.06,3.64c-1.58,0.23-2.55,2.16-2.34,3.58c0.22,1.43,1.58,3.04,3.21,2.83c9.31-1.21,18.61-2.6,27.95-3.57
				c4.59-0.48,9.2-0.83,13.82-0.97c2.38-0.07,5.06,0.23,6.81-1.72c1.42-1.58,1.85-3.87,2.64-5.79c0.76-1.84,1.65-3.62,2.62-5.36
				c1.09-1.94,2.47-3.82,2.29-6.16c-0.42-5.36-7.45-5.39-11.48-5.57c-8.63-0.38-16.87,3.72-23.83,8.46
				c-7.77,5.29-14.81,11.45-23.09,16C37.93,30.93,39.17,34.06,41.22,33.36L41.22,33.36z"/>
		</g>
	</g>
	<g>
		<path class="st0" d="M97.18,28.03c2.52-3.51,5.22-6.88,8.1-10.1c2.73-3.06,5.74-6.06,9.56-7.55c2.99-1.17,6.27-1.33,9.48-1.48
			c12.26-0.56,24.83-1.08,36.49,2.74c5.11,1.67,10.08,4.26,13.58,8.35c2.99,3.5,4.73,7.88,6.35,12.2
			c8.08,21.63,14.26,43.96,18.45,66.67c0.88,4.79,1.68,9.7,0.97,14.52c-0.58,3.97-2.17,7.73-4.11,11.24
			c-4.25,7.71-10.25,14.44-17.42,19.54c-0.55,0.39-1.16,0.79-1.83,0.74c-1.37-0.1-1.89-1.81-2.06-3.18
			c-4.01-33.37-2.27-68.03-14.02-99.52c-1.08-2.89-2.33-5.83-4.63-7.89c-3.72-3.33-9.2-3.55-14.2-3.58
			c-15.06-0.11-30.12-0.22-45.18-0.33c0.83-2.44,2.54-4.56,4.74-5.9"/>
		<g>
			<path class="st0" d="M98.77,29.61c2.17-2.58,4.36-5.16,6.63-7.65c2-2.19,3.98-4.48,6.29-6.36c2.2-1.78,4.67-2.87,7.46-3.31
				c3.14-0.49,6.42-0.44,9.6-0.56c6.61-0.25,13.25-0.35,19.83,0.4c5.92,0.67,12.14,2.08,17.35,5.06c2.34,1.34,4.46,2.98,6.17,5.08
				c1.72,2.11,2.97,4.66,3.98,7.17c2.49,6.22,4.55,12.64,6.57,19.02c4.08,12.9,7.6,25.99,10.47,39.21c0.71,3.27,1.37,6.55,2.01,9.83
				c0.66,3.35,1.35,6.67,1.56,10.06c0.2,3.25-0.08,6.1-1.06,9.17c-0.88,2.76-2.18,5.3-3.7,7.86c-2.98,5.04-6.51,9.29-10.95,13.22
				c-0.88,0.78-2.07,1.77-2.79,2.33c-0.52,0.4-1.2,0.76-1.66,1.21c-0.12,0.07-0.23,0.14-0.35,0.21c0.81-0.31,1.52-0.17,2.12,0.42
				c0.06,0.09,0.13,0.19,0.19,0.28c-0.19-0.34-0.2-0.34-0.04,0.03c-0.42-1.02-0.5-2.23-0.63-3.31c-0.2-1.67-0.35-3.35-0.51-5.02
				c-2.45-26.13-2.38-52.71-8.78-78.32c-1.54-6.15-3.32-12.44-6-18.21c-1.37-2.95-3.39-5.56-6.17-7.29
				c-2.6-1.62-5.61-2.29-8.61-2.64c-2.93-0.34-5.89-0.29-8.83-0.31c-3.56-0.03-7.12-0.05-10.67-0.08
				c-7.03-0.05-14.07-0.11-21.1-0.16c-3.48-0.03-6.95-0.04-10.43-0.03c1.12,1.47,2.24,2.94,3.36,4.41c0.14-0.39,0.12-0.4,0.41-0.94
				c0.22-0.42,0.6-1.02,0.79-1.26c0.37-0.49,1.43-1.49,1.85-1.76c1.51-0.96,2.12-2.95,1.19-4.54c-0.88-1.51-3.02-2.15-4.54-1.19
				c-3.06,1.94-5.15,4.44-6.42,7.84c-0.82,2.19,1.27,4.37,3.36,4.41c14.73,0.27,29.46,0.26,44.19,0.36
				c1.37,0.01,2.74,0.01,4.11,0.08c1.73,0.08,2.64,0.15,4.09,0.47c2.49,0.55,4.46,1.48,5.79,3.39c1.76,2.54,2.52,5.03,3.54,7.96
				c1.09,3.16,2.06,6.36,2.92,9.59c6.89,25.95,6.55,53.03,9.29,79.6c0.17,1.67,0.38,3.34,0.52,5.02c0.15,1.69,0.25,3.37,1.01,4.93
				c0.73,1.51,2.04,2.64,3.7,3c2.13,0.46,3.9-0.6,5.53-1.81c5.17-3.82,9.63-8.32,13.48-13.46c3.86-5.15,7.33-11.18,8.6-17.55
				c1.47-7.34-0.12-14.82-1.54-22.04c-2.72-13.83-6.2-27.49-10.46-40.93c-2.12-6.68-4.44-13.3-6.96-19.84
				c-2.35-6.11-4.81-12.46-9.86-16.89c-10.05-8.83-24.92-10.3-37.73-10.25c-3.43,0.01-6.87,0.14-10.3,0.3
				c-3.48,0.16-7.02,0.22-10.42,1.07c-6.4,1.6-11.06,6.61-15.01,11.6c-2.16,2.72-4.16,5.49-5.98,8.45
				C93.94,29.02,97.1,31.59,98.77,29.61L98.77,29.61z"/>
		</g>
	</g>
</g>
<g id="Layer_8">
	<g>
		<g>
			<path class="st1" d="M72.32,28.64c0.28-0.11,0.58-0.13,0.87-0.2c0.35-0.09,0.7-0.2,1.04-0.32c0.83-0.28,1.64-0.71,2.45-1.07
				c1.32-0.59,2.62-1.21,3.92-1.84c0.3-0.15,0.6-0.29,0.9-0.44c0.17-0.08,0.33-0.16,0.5-0.24c0.45-0.22,0.12,0.04-0.09,0.02
				c0.01,0,0.7-0.12,0.14-0.09c-0.26,0.02-0.28,0.03-0.04,0.02c-0.32-0.09-0.65-0.18-0.97-0.27c-0.32-0.17-0.57-0.51-0.71-0.83
				c-0.09-0.14-0.13-0.29-0.13-0.45c-0.03-0.29-0.04-0.32-0.03-0.09c0.04,0.48,0.13-0.55,0.03-0.23c-0.04,0.12-0.06,0.25-0.1,0.38
				c-0.1,0.33-0.21,0.66-0.32,0.98c-0.23,0.7-0.43,1.4-0.6,2.12c-0.37,1.53,0.48,3.34,2.1,3.71c1.64,0.37,3.21-0.49,3.71-2.1
				c0.27-0.88,0.49-1.77,0.69-2.67c0.24-1.06,0.4-2.1,0.16-3.17c-0.31-1.39-1.35-2.55-2.74-2.94c-1.3-0.36-2.54,0.02-3.7,0.59
				c-1.57,0.77-3.12,1.62-4.64,2.48c-0.77,0.43-1.56,0.84-2.31,1.3c-0.91,0.57-1.97,1.29-2.49,2.25c-0.41,0.76-0.36,1.67,0.17,2.35
				C70.57,28.5,71.54,28.94,72.32,28.64L72.32,28.64z"/>
		</g>
	</g>
</g>
<g id="Layer_5">
	<g>
		<path class="st0" d="M127.1,179.16c18.15-3.65,35.15-12.8,48.21-25.92"/>
		<g>
			<path class="st1" d="M125.98,182.29c2.1,0.9,4.23,1.25,6.53,0.99c2.21-0.25,4.35-0.6,6.5-1.15c4.01-1.02,7.85-2.35,11.66-3.96
				c3.41-1.45,6.75-3.08,9.98-4.9c3.61-2.04,6.94-4.53,10.21-7.08c3.65-2.86,7.35-5.91,10.19-9.6c0.87-1.13,0.96-2.91,0.79-4.23
				c-0.19-1.39-0.76-2.83-1.83-3.81c-0.85-0.78-1.83-1.35-2.93-1.71c-1.4-0.45-3.9-0.27-5.11,0.67c-3.16,2.44-5.95,5.33-9.09,7.81
				c-0.16,0.13-0.32,0.25-0.49,0.38c-0.58,0.46,0.6-0.46,0.56-0.43c-0.39,0.27-0.76,0.58-1.15,0.86c-0.72,0.53-1.44,1.05-2.17,1.56
				c-1.46,1.02-2.97,1.97-4.45,2.96c-2.96,1.98-6.04,3.79-9.21,5.42c-1.64,0.85-3.32,1.61-4.99,2.41c-0.74,0.35-1.47,0.71-2.21,1.05
				c-0.37,0.17-0.74,0.34-1.12,0.5c-0.19,0.08-0.37,0.16-0.56,0.24c-1.03,0.45,0.83-0.33,0.12-0.05c-2.17,0.88-4.36,1.69-6.5,2.64
				c-0.18,0.08-0.37,0.16-0.55,0.24c-0.12,0.05-0.94,0.4-0.29,0.13c0.63-0.26-0.02,0.01-0.13,0.05c-0.53,0.22-1.09,0.41-1.58,0.71
				c-1.05,0.62-2.13,1.42-2.95,2.31C123.73,177.9,123.6,181.26,125.98,182.29L125.98,182.29z"/>
		</g>
	</g>
	<g>
		<path class="st0" d="M129.64,177.34c0.64-1.2-0.02-2.65-0.65-3.85c-14.45-27.76-15.75-60.96-9.17-91.55
			c4.38-20.34,12.88-41.02,29.46-53.52c7.37,7.85,11.07,18.35,14.06,28.67c8.87,30.59,13.15,62.5,12.66,94.34"/>
		<g>
			<path class="st1" d="M130.36,179.97c0.5-0.08,0.98-0.28,1.42-0.54c0.33-0.24,0.65-0.48,0.96-0.74c0.41-0.36,0.21-0.22-0.6,0.42
				c1.99-0.86,3.04-3.89,2.39-5.87c-0.4-1.2-0.88-2.36-1.32-3.55c-0.19-0.53-0.35-1.08-0.54-1.61c-0.2-0.46-0.39-0.93-0.59-1.39
				c0.28,0.67,0.34,0.8,0.18,0.4c-0.12-0.33-0.26-0.66-0.39-0.99c-0.94-2.45-1.79-4.94-2.55-7.46c-1.48-4.92-2.88-9.84-3.87-14.89
				c-0.51-2.6-0.95-5.21-1.33-7.83c-0.04-0.28-0.07-0.57-0.12-0.85c0.02,0.12,0.22,1.72,0.07,0.54c-0.08-0.64-0.16-1.28-0.23-1.92
				c-0.15-1.35-0.29-2.71-0.4-4.06c-0.43-5.16-0.56-10.35-0.44-15.52c0.14-5.92,0.64-11.83,1.43-17.7
				c-0.08,0.63-0.17,1.26-0.25,1.89c1.73-12.67,4.71-25.3,9.69-37.11c-0.25,0.59-0.5,1.18-0.75,1.77c2.44-5.71,5.36-11.23,8.94-16.3
				c0.41-0.58,0.84-1.15,1.26-1.73c0.84-1.15-1.07,1.34-0.24,0.3c0.24-0.3,0.48-0.61,0.73-0.91c0.98-1.2,2-2.36,3.06-3.49
				c2.13-2.26,4.43-4.36,6.88-6.27c-0.52,0.4-1.04,0.8-1.56,1.2c0.31-0.24,0.62-0.47,0.93-0.71c-3.11-0.4-6.21-0.8-9.32-1.2
				c0.85,0.93,1.65,1.88,2.42,2.88c-0.4-0.52-0.8-1.04-1.21-1.56c2.78,3.67,4.95,7.72,6.74,11.95c-0.26-0.62-0.53-1.25-0.79-1.87
				c2.93,7.03,4.97,14.45,6.89,21.81c2.13,8.13,3.93,16.34,5.41,24.61c0.83,4.65,1.56,9.31,2.19,13.99
				c-0.09-0.7-0.19-1.41-0.28-2.11c2.12,15.86,3.04,31.89,3.01,47.88c-0.01,4.07,3.59,7.97,7.78,7.78c4.31-0.19,7.67-3.42,7.78-7.78
				c0.49-18.02-0.89-35.97-3.53-53.79c-1.27-8.55-2.87-17.05-4.82-25.46c-1.88-8.14-3.95-16.31-6.69-24.21
				c-3.16-9.13-7.34-17.89-14.03-24.98c-1.15-1.23-2.79-1.9-4.42-2.12c-1.53-0.21-3.62-0.08-4.9,0.91
				c-4.4,3.39-8.42,7.04-11.91,11.38c-3.47,4.31-6.56,8.85-9.14,13.75c-4.91,9.32-8.36,19.41-10.73,29.65
				c-5.1,22.08-6.47,45.79-1.68,68.06c0.63,2.93,1.37,5.83,2.21,8.71c0.44,1.51,0.92,3,1.42,4.49c0.23,0.68,0.47,1.35,0.71,2.02
				c0.29,0.8,0.61,1.54,0.94,2.34c-0.1-0.25-0.21-0.49-0.31-0.74c0.11,0.26,0.22,0.53,0.33,0.79c1.31,3.12,2.7,6.2,4.26,9.21
				c0.73,1.4,1.58,2.71,2.44,4.03c0.38,0.59,0.73,1.21,1.12,1.79c0.65,1,1.4,1.67,2.49,2.13c0.62,0.33,1.29,0.48,2,0.45
				c-0.97,0.02-1.71-0.35-2.24-1.11C128.08,179.81,129.05,180.17,130.36,179.97L130.36,179.97z"/>
		</g>
	</g>
</g>
<g id="Layer_4">
	<g>
		<path class="st0" d="M118.44,120.1c-28.42,7.62-58.52,2.62-87.46-2.66c-5.88-1.07-12.02-2.27-16.57-6.22
			c-5.98,16.38-1.5,34.69,6.11,50.29c32.84,21.32,74.7,28.19,112.63,18.45c-5.18-3.03-7.74-8.31-9.72-13.61
			c-5.73-15.4-7.26-32.35-4.38-48.53"/>
		<g>
			<path class="st0" d="M117.9,118.14c-17.16,2.48-34.18,3.15-51.44,1.25c-8.46-0.93-16.88-2.26-25.26-3.73
				c-7.85-1.38-17.77-1.86-24.24-6.99c-2.17-1.72-5.09-1.16-6.04,1.59c-5.01,14.53-2.91,30.12,2.54,44.22
				c1.15,2.97,2.25,7.26,4.45,9.64c2.18,2.36,6.47,4.15,9.25,5.68c6.31,3.48,12.9,6.47,19.65,8.99
				c27.81,10.4,58.59,12.11,87.36,4.85c3.32-0.84,3.59-5.26,0.91-6.99c-7.83-5.05-10.29-16.81-12.02-25.34
				c-2.18-10.74-2.15-21.72-0.54-32.54c0.67-4.48-6.08-6.53-6.94-1.91c-2.36,12.65-2.1,25.65,0.63,38.23
				c2.25,10.35,5.66,22.09,15.01,28.16c0.3-2.33,0.61-4.66,0.91-6.99c-25.67,6.38-52.72,5.38-77.88-2.79
				c-6.25-2.03-12.34-4.5-18.22-7.41c-2.72-1.35-5.39-2.78-8.01-4.3c-3.73-2.17-5.13-3.57-6.81-7.62
				c-5.54-13.35-8.08-28.02-3.32-41.98c-2.01,0.53-4.02,1.06-6.04,1.59c6.94,5.47,15.25,6.62,23.73,8.12
				c9,1.59,18.03,3.09,27.12,4.11c18.63,2.08,38.48,2.81,56.27-3.94C121.45,121.12,120.47,117.77,117.9,118.14L117.9,118.14z"/>
		</g>
	</g>
</g>
<g id="Layer_7">
	<g>
		<g>
			<path class="st1" d="M11.56,122.09c1.63,1.34,3.21,2.75,5.13,3.65c2.18,1.03,4.4,2.11,6.72,2.78c3.24,0.93,6.51,1.72,9.82,2.38
				c7.39,1.47,14.83,2.27,22.36,2.51c14,0.44,28.01-0.42,41.99-1.06c8.24-0.38,16.61-0.4,24.8-1.39c2.84-0.34,5.21-0.93,7.31-3.03
				c1.79-1.79,3.14-4.73,3.03-7.31c-0.25-5.66-4.54-10.25-10.33-10.33c-6.2-0.09-12.41,0.51-18.6,0.88
				c-6.12,0.37-12.25,0.74-18.37,1.1c-11.62,0.68-23.28,1.26-34.92,0.75c-6.43-0.28-12.87-0.55-19.26-1.39
				c0.82,0.11,1.65,0.22,2.47,0.33c-3.23-0.44-6.43-1.14-9.67-1.45c-1.19-0.11-2.38-0.23-3.56-0.37c-1.32-0.16-2.64,0-3.97,0.06
				c-2.81,0.12-5.25,1.65-6.36,4.28C9.13,116.85,9.43,120.34,11.56,122.09L11.56,122.09z"/>
		</g>
	</g>
	<g>
		<g>
			<path class="st1" d="M144.56,28.42c-2.43,1.68-4.99,3.5-7.05,5.63c-2.11,2.18-3.9,5-5.46,7.61c-2.93,4.89-4.87,10.45-6.4,15.93
				c-1.46,5.21-2.49,10.52-3.36,15.86c-1.08,6.68-1.99,13.43-2.15,20.2c-0.08,3.45,0.01,6.91,0.38,10.34
				c0.26,2.42,0.59,4.86,1.04,7.25c0.34,1.77,0.83,3.5,1.11,5.28c-0.11-0.8-0.22-1.6-0.32-2.4c0.12,0.93,0.14,1.82,0.03,2.75
				c0.11-0.8,0.22-1.61,0.32-2.41c-0.08,0.4-0.17,0.76-0.31,1.14c0.31-0.72,0.61-1.45,0.92-2.17c-0.25,0.56-0.56,1.09-0.92,1.58
				c0.47-0.61,0.94-1.22,1.42-1.83c-0.24,0.28-0.48,0.53-0.76,0.77c0.61-0.47,1.21-0.94,1.82-1.41c-0.29,0.21-0.57,0.38-0.9,0.54
				c0.71-0.3,1.42-0.6,2.13-0.9c-0.21,0.09-0.43,0.15-0.65,0.2c0.79-0.11,1.58-0.21,2.36-0.32c-0.37,0.05-0.67,0.05-1.04,0
				c-2.01-0.24-4.91,1.14-6.24,2.58c-1.34,1.46-2.16,3.1-2.43,5.07c-0.56,4.19,2.03,8.64,6.32,9.68c4.33,1.05,8.66-0.13,11.92-3.16
				c2.85-2.64,4.21-6.45,4.24-10.28c0.02-2.85-0.83-5.59-1.49-8.32c-0.52-2.13-0.91-4.29-1.21-6.46c0.11,0.79,0.21,1.57,0.32,2.36
				c-1.13-8.79-0.5-17.65,0.67-26.4c-0.1,0.76-0.2,1.52-0.31,2.27c1.31-9.62,3.09-19.29,6.88-28.29c-0.28,0.66-0.55,1.31-0.83,1.97
				c0.69-1.61,1.31-3.25,1.98-4.87c-0.27,0.64-0.54,1.28-0.81,1.93c1-2.36,2.23-4.56,3.43-6.81c1.2-2.24,2.23-4.47,3.69-6.56
				c1.48-2.12,0.91-5.68-0.95-7.39C150.05,27.63,146.83,26.84,144.56,28.42L144.56,28.42z"/>
		</g>
	</g>
	<g>
		<g>
			<path class="st1" d="M106.6,129.93c0.81,0.79,1.55,0.78,2.61,0.93c1.11,0.16,2.21,0.4,3.34,0.43c2.14,0.06,4.29-0.05,6.43-0.07
				c3.77-0.04,7.59,0.11,11.33-0.47c3.68-0.56,6.99-2.4,9.01-5.59c1.98-3.13,2.39-7.05,1.95-10.65c-0.29-2.39-0.82-4.73-1.4-7.07
				c-0.55-2.21-0.83-5.16-2.17-7.04c-0.72-1.01-1.75-1.65-3.04-1.46c-1.08,0.16-2.36,1-2.54,2.18c-0.39,2.6,0.56,5.34,1.14,7.88
				c0.45,1.97,1.03,3.95,1.32,5.96c0.3,2.12,0.25,3.78-0.37,5.6c-0.41,1.21-1.26,2.29-2.5,3c-1.17,0.67-3.02,1.07-4.36,1.22
				c-2.12,0.24-4.27,0.31-6.4,0.44c-2.39,0.14-4.78,0.29-7.17,0.43c-1.23,0.07-2.44,0.18-3.64,0.45c-1.22,0.27-2.68,0.33-3.54,1.31
				C105.97,128.13,105.88,129.22,106.6,129.93L106.6,129.93z"/>
		</g>
	</g>
	<g>
		<g>
			<path class="st1" d="M137.55,109.82c0.03,0.03,0.06,0.07,0.09,0.1c-0.06-0.47-0.12-0.93-0.18-1.4c-0.02,0.05-0.05,0.1-0.07,0.15
				c0.54-0.14,1.08-0.28,1.62-0.43c0.42,0.4,0.53,0.34,0.35-0.18c-0.06-0.3-0.11-0.61-0.16-0.91c-0.1-0.61-0.18-1.23-0.26-1.84
				c-0.17-1.18-0.37-2.35-0.49-3.53c-0.23-2.28-0.42-4.58-0.5-6.88c-0.16-4.8,0.22-9.59,0.11-14.38c-0.03-1.32-1.1-2.44-2.44-2.44
				c-1.45,0-2.28,1.13-2.44,2.44c-0.63,5.33-0.53,10.88,0.02,16.22c0.27,2.66,0.72,5.26,1.42,7.85c0.36,1.34,0.85,2.62,1.4,3.9
				c0.47,1.09,0.94,2.12,2.25,2.18c0.76,0.04,1.27-0.64,1.33-1.33c0.01-0.08,0.01-0.16,0.01-0.24c0.02-0.39-0.23-0.81-0.57-1
				c-0.04-0.02-0.08-0.04-0.11-0.06C137.76,107.42,136.71,108.86,137.55,109.82L137.55,109.82z"/>
		</g>
	</g>
	<g>
		<g>
			<path class="st1" d="M139.52,108.97c-0.26-3.73-0.85-7.44-1.19-11.17c-0.35-3.76-0.37-7.57-0.86-11.31
				c-0.32-2.47-3.77-2.6-3.95,0c-0.26,3.86,0.35,7.81,0.98,11.61c0.63,3.77,1.43,7.61,2.87,11.16
				C137.79,110.3,139.61,110.31,139.52,108.97L139.52,108.97z"/>
		</g>
	</g>
	<g>
		<g>
			<path class="st1" d="M117.15,127.13c-2.19,3.29-2.35,7.67-2.28,11.51c0.06,3.41,0.29,6.82,0.73,10.2
				c0.5,3.88,1.13,7.76,2.33,11.49c1.17,3.63,2.63,7.2,4.33,10.62c0.87,1.75,1.83,3.46,2.87,5.11c1.2,1.91,2.58,4.33,4.29,5.78
				c2.56,2.17,5.99,2.66,8.76,0.52c2.74-2.12,3.2-5.58,1.72-8.61c-0.47-0.96-1.23-1.79-1.84-2.67c-0.62-0.89-1.21-1.79-1.77-2.72
				c-1.05-1.73-2.01-3.51-2.88-5.33c-0.23-0.49-0.46-0.98-0.68-1.47c-0.11-0.25-0.22-0.49-0.32-0.74c0.42,0.99,0.49,1.16,0.21,0.49
				c-0.4-1.01-0.79-2.01-1.15-3.03c-0.7-1.98-1.33-4-1.94-6.01c-1.22-4.04-2.19-8.18-2.87-12.34c-0.08-0.47-0.15-0.94-0.22-1.41
				c-0.05-0.36-0.45-2.16-0.08-0.49c-0.32-1.42-0.34-2.91-0.62-4.34c-0.45-2.34-0.9-4.52-2.21-6.56
				C121.96,124.73,118.71,124.79,117.15,127.13L117.15,127.13z"/>
		</g>
	</g>
	<g>
		<g>
			<path class="st1" d="M132.85,182.02c1.86,1.66,4.78,1.37,7.03,0.69c1.94-0.59,3.82-1.32,5.58-2.34
				c3.57-2.08,7.03-4.34,10.54-6.51c3.51-2.18,7.02-4.34,10.5-6.56c1.74-1.11,3.48-2.23,5.22-3.34c2.09-1.34,4.75-2.58,6.08-4.72
				c1.64-2.63-0.44-7.1-3.84-6.69c-1.12,0.13-1.99,0.25-2.98,0.82c-0.5,0.28-0.98,0.61-1.47,0.92c-0.84,0.53-1.68,1.05-2.52,1.58
				c-1.82,1.14-3.64,2.28-5.46,3.42c-3.57,2.24-7.1,4.54-10.63,6.83c-3.45,2.23-6.85,4.58-10.39,6.67
				c-0.77,0.45-1.54,0.91-2.32,1.33c-0.9,0.47-1.95,0.8-2.79,1.35c-0.85,0.55-1.63,1.34-2.3,2.1
				C132.09,178.66,131.56,180.87,132.85,182.02L132.85,182.02z"/>
		</g>
	</g>
	<g>
		<g>
			<path class="st1" d="M133.82,177.49c4.7,2.32,10.37,0.29,14.84-1.69c4.09-1.82,7.97-4.17,11.71-6.63
				c3.93-2.6,7.68-5.47,11.34-8.43c1.7-1.38,3.4-2.78,4.99-4.29c2.1-1.99,4.35-4.07,5.29-6.86c0.64-1.89-0.3-4.11-1.79-5.26
				c-1.7-1.31-3.68-1.26-5.56-0.39c-2.13,0.98-3.84,3.33-5.44,5.01c-1.41,1.47-2.8,2.97-4.26,4.4c-1.56,1.53-3.18,2.99-4.85,4.39
				c-0.78,0.66-1.57,1.3-2.36,1.93c-0.34,0.27-0.68,0.54-1.03,0.81c0.7-0.54-0.67,0.5-0.8,0.6c-3.41,2.55-6.95,4.99-10.71,7.01
				c-0.91,0.49-1.84,0.96-2.77,1.41c-1.04,0.51-1.19,0.58-2.29,0.97c-2.16,0.78-4.25,1.34-6.3,2.63
				C132.3,174.04,132.03,176.61,133.82,177.49L133.82,177.49z"/>
		</g>
	</g>
	<g>
		<g>
			<path class="st1" d="M24.59,169.06c1.69,1.29,3.15,2.81,4.95,3.95c1.7,1.08,3.44,2.09,5.23,3.01c3.7,1.91,7.52,3.6,11.4,5.11
				c8.05,3.12,16.29,5.83,24.65,7.96c16.38,4.17,33.42,5.9,50.11,2.48c8.66-1.78,17.57-4.93,24.8-10.12
				c1.34-0.96,1.98-2.66,1.09-4.17c-0.83-1.42-2.75-1.94-4.17-1.09c-6.48,3.85-13.15,6.86-20.48,8.66
				c-7.28,1.79-14.77,2.48-22.26,2.31c-16.8-0.37-33.31-4.63-49.24-9.69c-4.27-1.36-8.53-2.81-12.67-4.53
				c-2.04-0.85-4.07-1.77-6.06-2.73c-2.09-1.01-4.32-1.76-6.31-2.95C24.46,166.56,23.56,168.27,24.59,169.06L24.59,169.06z"/>
		</g>
	</g>
	<g>
		<g>
			<path class="st1" d="M181.56,29.66c0.04,2.03,0.6,3.97,1.12,5.92c0.56,2.07,1.11,4.15,1.64,6.23c1.03,4.01,1.96,8.05,2.87,12.09
				c1.86,8.25,3.4,16.58,4.88,24.91c1.46,8.21,3.23,16.39,4.05,24.7c0.42,4.21,0.6,8.47,0.34,12.7c-0.06,1.06-0.15,2.12-0.28,3.17
				c-0.02,0.21-0.05,0.42-0.08,0.62c0.01-0.08,0.07-0.49,0-0.05c-0.08,0.51-0.16,1.01-0.25,1.52c-0.3,1.65-0.68,3.28-1.16,4.88
				c-0.27,0.93-0.58,1.84-0.91,2.75c-0.16,0.42-0.32,0.84-0.49,1.26c-0.16,0.4-0.02,0.06,0.01-0.02c-0.13,0.29-0.26,0.59-0.39,0.88
				c-0.77,1.68-1.67,3.3-2.68,4.84c-0.24,0.37-0.49,0.74-0.75,1.1c-0.15,0.21-0.3,0.41-0.45,0.61c-0.38,0.51,0.3-0.36-0.1,0.13
				c-0.6,0.73-1.22,1.45-1.88,2.13c-1.32,1.36-2.8,2.54-4.28,3.74c-1.42,1.15-1.34,3.56-0.29,4.88c1.13,1.42,3.17,1.92,4.79,0.96
				c6.43-3.83,10.78-10.77,13.45-17.59c2.92-7.44,3.7-15.68,3.21-23.61c-0.56-9.09-2.45-18.07-4.25-26.98
				c-1.72-8.51-3.83-16.93-6.21-25.28c-1.33-4.68-2.78-9.31-4.38-13.91c-0.79-2.26-1.6-4.52-2.48-6.74c-0.9-2.3-1.75-4.61-3.29-6.56
				C182.79,28.17,181.55,28.81,181.56,29.66L181.56,29.66z"/>
		</g>
	</g>
	<g>
		<g>
			<path class="st1" d="M90.57,53.19c2.93,0,2.94-4.56,0-4.56C87.64,48.63,87.64,53.19,90.57,53.19L90.57,53.19z"/>
		</g>
	</g>
</g>
<g id="Layer_10">
	<g>
		<g>
			<path class="st2" d="M41.92,120.53c-0.98,2.27-0.29,4.92,0.2,7.26c0.44,2.11,0.94,4.35,2.11,6.2c2.51,3.96,6.89,4.71,11.2,5.13
				c4.67,0.45,9.36,0.81,14.05,0.58c2.38-0.12,4.77-0.39,7.12-0.85c2.17-0.42,4.69-0.87,6.24-2.58c2.33-2.57,0.55-6.05-0.37-8.83
				c-0.91-2.75-1.74-5.57-3.02-8.17c-0.72-1.45-2.7-1.96-4.1-1.34c-1.56,0.69-2.22,2.22-1.9,3.87c0.5,2.55,1.49,5.03,2.34,7.48
				c0.21,0.62,0.43,1.24,0.64,1.85c0.19,0.56,0.33,1.36,0.64,1.85c0.22,0.94,0.47,0.5,0.75-1.33c0.11-0.14,0.26-0.22,0.43-0.26
				c-0.07,0.2-1.43,0.43-1.64,0.49c-4.61,1.23-9.4,1.35-14.15,1.19c-2.42-0.08-4.84-0.22-7.26-0.37c-1.75-0.1-3.56-0.19-5.03-0.97
				c-1.6-0.85-2.18-2.77-2.72-4.42c-0.75-2.3-1.11-5.33-2.81-7.14C43.94,119.44,42.36,119.51,41.92,120.53L41.92,120.53z"/>
		</g>
	</g>
</g>
<g id="Layer_3">
	<g id="XMLID_1_">
		<g>
			<path class="st0" d="M149.5,28.15c-11.37,11-19.49,25.31-23.12,40.7c-3.56,15.15-2.77,31.3,2.27,46.02
				c-28.28,5.52-57.24,7.62-86.04,6.22c-3.91-0.19-7.84-0.45-11.71-1.11c-7.46-1.28-14.66-4.09-21.02-8.19
				c-0.9-16.16,0.17-32.78,5.99-47.92C21.29,49.77,31.15,37,44.61,30.15l-0.01-0.16C79.5,27.54,114.54,26.92,149.5,28.15z"/>
		</g>
		<g>
			<path class="st3" d="M44.25,30.01c0.12-0.01,0.23-0.02,0.35-0.02c34.9-2.45,69.94-3.07,104.9-1.84
				c-11.37,11-19.49,25.31-23.12,40.7c-3.56,15.15-2.77,31.3,2.27,46.02c-28.28,5.52-57.24,7.62-86.04,6.22
				c-3.91-0.19-7.84-0.45-11.71-1.11c-7.46-1.28-14.66-4.09-21.02-8.19c-0.9-16.16,0.17-32.78,5.99-47.92
				C21.29,49.77,31.15,37,44.61,30.15"/>
		</g>
	</g>
</g>
<g id="Layer_9">
	<g>
		<g>
			<path class="st1" d="M53.59,28.67c20.25-2.51,40.59-3.78,60.96-2.07c5.81,0.49,11.57,1.32,17.35,2c2.24,0.26,2.75-3.52,0.53-3.95
				c-10.14-1.97-20.67-2.65-30.98-2.94c-10.35-0.29-20.74,0.04-31.04,1.17c-5.81,0.64-11.53,1.58-17.24,2.82
				C51.56,26.06,51.88,28.88,53.59,28.67L53.59,28.67z"/>
		</g>
	</g>
</g>
<g id="Layer_13">
	<path class="st1" d="M90.28,69.9c1.38,6.86-0.53,13.25-1.66,16.57c-0.8,2.35-2.4,6.07-6.53,10.62c-1.44,1.58-5.1,5.52-11.32,7.8
		c-7.48,2.75-13.99,1.38-16.86,0.74c-3.17-0.71-10.18-2.38-15.94-8.76c-5.78-6.41-6.72-13.59-6.98-15.78
		c-0.16-1.4-0.78-7.61,2.15-14.81c2.8-6.89,7.29-10.84,8.49-11.85c8.35-7.04,17.95-7.08,20.29-7.02c3.5,0.08,11.25,0.87,18.34,6.63
		C82.21,55.61,88.47,60.85,90.28,69.9z"/>
</g>
<g id="Layer_14">
	<path class="st2" d="M45.07,55.92c-1.87,1.36-9.33,6.99-11.01,17.34c-0.55,3.37-1.01,10.54,3.3,17.34
		c5.28,8.33,15.23,12.13,24.19,11.32c13.35-1.21,20.06-12.28,20.94-13.8c1.14-1.95,6.46-11.09,2.76-21.47
		c-3.4-9.54-12.53-14.83-20.65-15.96C55.29,49.41,48.09,53.72,45.07,55.92z"/>
</g>
<g id="Layer_11">
	<circle class="st1" cx="58.55" cy="74.66" r="12.42"/>
</g>
<g id="Layer_12">
	<path class="st1" d="M46.31,74.86c0,0-2.05,0.81-4.36,2.86c-1.01,0.9-2.12,2.41-1.93,3.01c0.34,1.09,4.05,0.85,5.82,0.73
		c3.79-0.25,6.62-1.11,7.44-1.38c0.8-0.25,4.24-1.38,8.25-3.88c2.92-1.82,6.15-4.39,6.23-4.45c1.2-1.18,2.79-2.83,4.53-4.93
		c2.49-3,2.5-3.56,2.35-3.8c-0.53-0.83-4.31-0.19-5.84,0.47c-2.7,1.17-4.55,1.89-4.68,1.72c-0.16-0.19,1.52-1.23,4-2.54
		c2.15-1.14,3.9-1.73,4.98-2c1.89-0.48,2.88-0.2,3.24-0.08c0.35,0.12,1.38,0.46,1.78,1.13c1.25,2.08-3.34,8.88-6.23,11.95
		c-1.74,1.85-3.51,3.03-6.89,5.39c-1.8,1.25-3.64,2.25-6.44,3.35c-2.94,1.15-5.97,1.12-8.52,1.48c-0.73,0.1-2.45,0.2-5.91,0.4
		c-1.68,0.1-3.22,0.17-4.93-0.57c-0.73-0.31-1.48-0.65-1.78-1.38c-0.62-1.49,1.12-3.42,1.54-3.88
		C41.6,75.54,46.31,74.86,46.31,74.86z"/>
</g>
</svg>
