<svg width="99" height="109" viewBox="0 0 99 109" fill="none" xmlns="http://www.w3.org/2000/svg">
<mask id="path-1-outside-1" maskUnits="userSpaceOnUse" x="0.302734" y="0.299316" width="99" height="95" fill="black">
<rect fill="white" x="0.302734" y="0.299316" width="99" height="95"/>
<path d="M49.5229 6.32736C49.5303 6.31504 49.5483 6.31547 49.555 6.32812L61.9354 29.5608C62.7058 31.0065 64.0786 32.0353 65.6824 32.3691L92.7434 38.0013C92.7577 38.0042 92.763 38.0219 92.7527 38.0322L73.8918 57.0344C72.6742 58.2611 72.1014 59.9873 72.3442 61.6986L76.2567 89.2802C76.2588 89.2947 76.2438 89.3057 76.2306 89.2994L51.9201 77.6804C50.4147 76.9609 48.6646 76.9609 47.1592 77.6804L22.8469 89.3003C22.834 89.3064 22.8194 89.2962 22.8206 89.282L25.3032 61.4062C25.4408 59.8617 24.9224 58.3305 23.8749 57.1873L6.3243 38.0317C6.31473 38.0213 6.32007 38.0044 6.33392 38.0013L31.9928 32.3558C33.4819 32.0282 34.7692 31.0992 35.5495 29.7892L49.5229 6.32736Z"/>
</mask>
<path d="M31.9928 32.3558L30.7656 26.778L31.9928 32.3558ZM6.3243 38.0317L10.5353 34.1735L6.3243 38.0317ZM6.33392 38.0013L7.56116 43.5792L6.33392 38.0013ZM23.8749 57.1873L19.6639 61.0455L23.8749 57.1873ZM22.8469 89.3003L25.3097 94.4532L22.8469 89.3003ZM22.8206 89.282L17.1319 88.7754L22.8206 89.282ZM51.9201 77.6804L49.4573 82.8334L51.9201 77.6804ZM47.1592 77.6804L49.622 82.8334L47.1592 77.6804ZM76.2567 89.2802L81.9114 88.4781L76.2567 89.2802ZM76.2306 89.2994L78.6934 84.1464L76.2306 89.2994ZM73.8918 57.0344L77.9453 61.0578L73.8918 57.0344ZM72.3442 61.6986L77.9988 60.8964L72.3442 61.6986ZM92.7434 38.0013L93.9071 32.4098L92.7434 38.0013ZM92.7527 38.0322L88.6992 34.0089L92.7527 38.0322ZM65.6824 32.3691L64.5186 37.9606L65.6824 32.3691ZM49.555 6.32812L44.5147 9.01403L49.555 6.32812ZM49.5229 6.32736L54.4299 9.24982L49.5229 6.32736ZM44.5147 9.01403L56.8951 32.2467L66.9757 26.8748L54.5953 3.64221L44.5147 9.01403ZM64.5186 37.9606L91.5796 43.5927L93.9071 32.4098L66.8461 26.7777L64.5186 37.9606ZM88.6992 34.0089L69.8383 53.011L77.9453 61.0578L96.8062 42.0556L88.6992 34.0089ZM66.6895 62.5007L70.602 90.0823L81.9114 88.4781L77.9988 60.8964L66.6895 62.5007ZM78.6934 84.1464L54.3829 72.5274L49.4573 82.8334L73.7677 94.4524L78.6934 84.1464ZM44.6963 72.5274L20.3841 84.1473L25.3097 94.4532L49.622 82.8334L44.6963 72.5274ZM28.5094 89.7887L30.992 61.9128L19.6145 60.8995L17.1319 88.7754L28.5094 89.7887ZM28.0859 53.329L10.5353 34.1735L2.11328 41.8899L19.6639 61.0455L28.0859 53.329ZM7.56116 43.5792L33.2201 37.9337L30.7656 26.778L5.10668 32.4235L7.56116 43.5792ZM40.4564 32.7117L54.4299 9.24982L44.616 3.40489L30.6425 26.8668L40.4564 32.7117ZM33.2201 37.9337C36.2498 37.2671 38.8689 35.377 40.4564 32.7117L30.6425 26.8668C30.6695 26.8215 30.7141 26.7893 30.7656 26.778L33.2201 37.9337ZM10.5353 34.1735C13.4979 37.4069 11.8458 42.6365 7.56116 43.5792L5.10668 32.4235C0.794361 33.3723 -0.868412 38.6356 2.11328 41.8899L10.5353 34.1735ZM30.992 61.9128C31.2718 58.7704 30.2172 55.6552 28.0859 53.329L19.6639 61.0455C19.6277 61.0059 19.6097 60.953 19.6145 60.8995L30.992 61.9128ZM20.3841 84.1473C24.3628 82.2457 28.9007 85.3951 28.5094 89.7887L17.1319 88.7754C16.7381 93.1974 21.3052 96.3672 25.3097 94.4532L20.3841 84.1473ZM54.3829 72.5274C51.32 71.0635 47.7593 71.0635 44.6963 72.5274L49.622 82.8334C49.5699 82.8583 49.5094 82.8583 49.4573 82.8334L54.3829 72.5274ZM70.602 90.0823C69.9639 85.5838 74.5938 82.1871 78.6934 84.1464L73.7677 94.4524C77.8938 96.4244 82.5536 93.0057 81.9114 88.4781L70.602 90.0823ZM69.8383 53.011C67.3609 55.5069 66.1956 59.0189 66.6895 62.5007L77.9988 60.8964C78.0072 60.9556 77.9874 61.0153 77.9453 61.0578L69.8383 53.011ZM91.5796 43.5927C87.1567 42.6722 85.5173 37.2145 88.6992 34.0089L96.8062 42.0556C100.009 38.8292 98.3586 33.3363 93.9071 32.4098L91.5796 43.5927ZM56.8951 32.2467C58.4626 35.1881 61.2555 37.2815 64.5186 37.9606L66.8461 26.7777C66.9016 26.7892 66.9491 26.8248 66.9757 26.8748L56.8951 32.2467ZM54.5953 3.64221C52.4967 -0.295994 46.8999 -0.429764 44.616 3.40489L54.4299 9.24982C52.1607 13.0598 46.5999 12.9269 44.5147 9.01403L54.5953 3.64221Z" fill="black" mask="url(#path-1-outside-1)"/>
<path d="M37.4336 54.3684L45.9045 61.6424L61.6463 44.3477" stroke="black" stroke-width="5.71127" stroke-linecap="round" stroke-linejoin="round"/>
<line x1="50.6662" y1="93.9006" x2="50.6662" y2="105.484" stroke="black" stroke-width="5.71127" stroke-linecap="round"/>
<line x1="75.4824" y1="19.6764" x2="83.6732" y2="11.4856" stroke="black" stroke-width="5.71127" stroke-linecap="round"/>
<line x1="13.8002" y1="11.4878" x2="21.991" y2="19.6786" stroke="black" stroke-width="5.71127" stroke-linecap="round"/>
</svg>
